<mxfile host="app.diagrams.net" modified="2023-03-29T08:15:38.989Z" agent="5.0 (Windows NT 10.0; Win64; x64) AppleWebKit/537.36 (KHTML, like Gecko) Chrome/111.0.0.0 Safari/537.36" etag="GY1Bkjtm5ICBylUkYZr2" version="21.0.8" type="github">
  <diagram name="Pagina-1" id="Xe3zrvS7oMLQRyun1GLH">
    <mxGraphModel dx="2100" dy="1098" grid="1" gridSize="10" guides="1" tooltips="1" connect="1" arrows="1" fold="1" page="1" pageScale="1" pageWidth="827" pageHeight="1169" math="0" shadow="0">
      <root>
        <mxCell id="0" />
        <mxCell id="1" parent="0" />
        <mxCell id="3R3os_SXmj_G0C6hNulr-21" style="edgeStyle=orthogonalEdgeStyle;rounded=0;orthogonalLoop=1;jettySize=auto;html=1;exitX=0.75;exitY=0;exitDx=0;exitDy=0;entryX=0.25;entryY=0;entryDx=0;entryDy=0;" edge="1" parent="1" source="3R3os_SXmj_G0C6hNulr-1" target="3R3os_SXmj_G0C6hNulr-10">
          <mxGeometry relative="1" as="geometry">
            <Array as="points">
              <mxPoint x="310" y="30" />
              <mxPoint x="570" y="30" />
            </Array>
          </mxGeometry>
        </mxCell>
        <mxCell id="3R3os_SXmj_G0C6hNulr-1" value="MovableObject" style="swimlane;fontStyle=1;align=center;verticalAlign=top;childLayout=stackLayout;horizontal=1;startSize=26;horizontalStack=0;resizeParent=1;resizeParentMax=0;resizeLast=0;collapsible=1;marginBottom=0;whiteSpace=wrap;html=1;" vertex="1" parent="1">
          <mxGeometry x="40" y="40" width="360" height="216" as="geometry" />
        </mxCell>
        <mxCell id="3R3os_SXmj_G0C6hNulr-2" value="- Rectangle: nodeTransform" style="text;strokeColor=none;fillColor=none;align=left;verticalAlign=top;spacingLeft=4;spacingRight=4;overflow=hidden;rotatable=0;points=[[0,0.5],[1,0.5]];portConstraint=eastwest;whiteSpace=wrap;html=1;" vertex="1" parent="3R3os_SXmj_G0C6hNulr-1">
          <mxGeometry y="26" width="360" height="26" as="geometry" />
        </mxCell>
        <mxCell id="3R3os_SXmj_G0C6hNulr-5" value="- Point: offset" style="text;strokeColor=none;fillColor=none;align=left;verticalAlign=top;spacingLeft=4;spacingRight=4;overflow=hidden;rotatable=0;points=[[0,0.5],[1,0.5]];portConstraint=eastwest;whiteSpace=wrap;html=1;" vertex="1" parent="3R3os_SXmj_G0C6hNulr-1">
          <mxGeometry y="52" width="360" height="26" as="geometry" />
        </mxCell>
        <mxCell id="3R3os_SXmj_G0C6hNulr-6" value="- Panel: objectPanel" style="text;strokeColor=none;fillColor=none;align=left;verticalAlign=top;spacingLeft=4;spacingRight=4;overflow=hidden;rotatable=0;points=[[0,0.5],[1,0.5]];portConstraint=eastwest;whiteSpace=wrap;html=1;" vertex="1" parent="3R3os_SXmj_G0C6hNulr-1">
          <mxGeometry y="78" width="360" height="26" as="geometry" />
        </mxCell>
        <mxCell id="3R3os_SXmj_G0C6hNulr-7" value="- Panel: objectParent" style="text;strokeColor=none;fillColor=none;align=left;verticalAlign=top;spacingLeft=4;spacingRight=4;overflow=hidden;rotatable=0;points=[[0,0.5],[1,0.5]];portConstraint=eastwest;whiteSpace=wrap;html=1;" vertex="1" parent="3R3os_SXmj_G0C6hNulr-1">
          <mxGeometry y="104" width="360" height="26" as="geometry" />
        </mxCell>
        <mxCell id="3R3os_SXmj_G0C6hNulr-3" value="" style="line;strokeWidth=1;fillColor=none;align=left;verticalAlign=middle;spacingTop=-1;spacingLeft=3;spacingRight=3;rotatable=0;labelPosition=right;points=[];portConstraint=eastwest;strokeColor=inherit;" vertex="1" parent="3R3os_SXmj_G0C6hNulr-1">
          <mxGeometry y="130" width="360" height="8" as="geometry" />
        </mxCell>
        <mxCell id="3R3os_SXmj_G0C6hNulr-4" value="+ UpdatePosition(): void" style="text;strokeColor=none;fillColor=none;align=left;verticalAlign=top;spacingLeft=4;spacingRight=4;overflow=hidden;rotatable=0;points=[[0,0.5],[1,0.5]];portConstraint=eastwest;whiteSpace=wrap;html=1;" vertex="1" parent="3R3os_SXmj_G0C6hNulr-1">
          <mxGeometry y="138" width="360" height="26" as="geometry" />
        </mxCell>
        <mxCell id="3R3os_SXmj_G0C6hNulr-28" value="+ DeleteObject(object sender, EventArgs e): void" style="text;strokeColor=none;fillColor=none;align=left;verticalAlign=top;spacingLeft=4;spacingRight=4;overflow=hidden;rotatable=0;points=[[0,0.5],[1,0.5]];portConstraint=eastwest;whiteSpace=wrap;html=1;" vertex="1" parent="3R3os_SXmj_G0C6hNulr-1">
          <mxGeometry y="164" width="360" height="26" as="geometry" />
        </mxCell>
        <mxCell id="3R3os_SXmj_G0C6hNulr-27" value="+ SelectObject(object sender, MouseeventArgs e): void" style="text;strokeColor=none;fillColor=none;align=left;verticalAlign=top;spacingLeft=4;spacingRight=4;overflow=hidden;rotatable=0;points=[[0,0.5],[1,0.5]];portConstraint=eastwest;whiteSpace=wrap;html=1;" vertex="1" parent="3R3os_SXmj_G0C6hNulr-1">
          <mxGeometry y="190" width="360" height="26" as="geometry" />
        </mxCell>
        <mxCell id="3R3os_SXmj_G0C6hNulr-58" style="edgeStyle=orthogonalEdgeStyle;rounded=0;orthogonalLoop=1;jettySize=auto;html=1;exitX=0.5;exitY=0;exitDx=0;exitDy=0;entryX=0;entryY=0.5;entryDx=0;entryDy=0;endArrow=none;endFill=0;fillColor=#dae8fc;strokeColor=#6c8ebf;" edge="1" parent="1" source="3R3os_SXmj_G0C6hNulr-10" target="3R3os_SXmj_G0C6hNulr-51">
          <mxGeometry relative="1" as="geometry">
            <Array as="points">
              <mxPoint x="660" y="20" />
              <mxPoint x="20" y="20" />
              <mxPoint x="20" y="503" />
            </Array>
          </mxGeometry>
        </mxCell>
        <mxCell id="3R3os_SXmj_G0C6hNulr-10" value="Node" style="swimlane;fontStyle=1;align=center;verticalAlign=top;childLayout=stackLayout;horizontal=1;startSize=26;horizontalStack=0;resizeParent=1;resizeParentMax=0;resizeLast=0;collapsible=1;marginBottom=0;whiteSpace=wrap;html=1;" vertex="1" parent="1">
          <mxGeometry x="480" y="40" width="360" height="372" as="geometry" />
        </mxCell>
        <mxCell id="3R3os_SXmj_G0C6hNulr-11" value="- String: nodeTitle" style="text;strokeColor=none;fillColor=none;align=left;verticalAlign=top;spacingLeft=4;spacingRight=4;overflow=hidden;rotatable=0;points=[[0,0.5],[1,0.5]];portConstraint=eastwest;whiteSpace=wrap;html=1;" vertex="1" parent="3R3os_SXmj_G0C6hNulr-10">
          <mxGeometry y="26" width="360" height="26" as="geometry" />
        </mxCell>
        <mxCell id="3R3os_SXmj_G0C6hNulr-12" value="- Label: nodeTitleLabel" style="text;strokeColor=none;fillColor=none;align=left;verticalAlign=top;spacingLeft=4;spacingRight=4;overflow=hidden;rotatable=0;points=[[0,0.5],[1,0.5]];portConstraint=eastwest;whiteSpace=wrap;html=1;" vertex="1" parent="3R3os_SXmj_G0C6hNulr-10">
          <mxGeometry y="52" width="360" height="26" as="geometry" />
        </mxCell>
        <mxCell id="3R3os_SXmj_G0C6hNulr-13" value="- Panel: nodeTitlePanel" style="text;strokeColor=none;fillColor=none;align=left;verticalAlign=top;spacingLeft=4;spacingRight=4;overflow=hidden;rotatable=0;points=[[0,0.5],[1,0.5]];portConstraint=eastwest;whiteSpace=wrap;html=1;" vertex="1" parent="3R3os_SXmj_G0C6hNulr-10">
          <mxGeometry y="78" width="360" height="26" as="geometry" />
        </mxCell>
        <mxCell id="3R3os_SXmj_G0C6hNulr-14" value="- List&amp;lt;NodeProperty&amp;gt;: nodeProperties" style="text;strokeColor=none;fillColor=none;align=left;verticalAlign=top;spacingLeft=4;spacingRight=4;overflow=hidden;rotatable=0;points=[[0,0.5],[1,0.5]];portConstraint=eastwest;whiteSpace=wrap;html=1;" vertex="1" parent="3R3os_SXmj_G0C6hNulr-10">
          <mxGeometry y="104" width="360" height="26" as="geometry" />
        </mxCell>
        <mxCell id="3R3os_SXmj_G0C6hNulr-22" value="- List&amp;lt;Connection&amp;gt;: connections" style="text;strokeColor=none;fillColor=none;align=left;verticalAlign=top;spacingLeft=4;spacingRight=4;overflow=hidden;rotatable=0;points=[[0,0.5],[1,0.5]];portConstraint=eastwest;whiteSpace=wrap;html=1;" vertex="1" parent="3R3os_SXmj_G0C6hNulr-10">
          <mxGeometry y="130" width="360" height="26" as="geometry" />
        </mxCell>
        <mxCell id="3R3os_SXmj_G0C6hNulr-15" value="" style="line;strokeWidth=1;fillColor=none;align=left;verticalAlign=middle;spacingTop=-1;spacingLeft=3;spacingRight=3;rotatable=0;labelPosition=right;points=[];portConstraint=eastwest;strokeColor=inherit;" vertex="1" parent="3R3os_SXmj_G0C6hNulr-10">
          <mxGeometry y="156" width="360" height="8" as="geometry" />
        </mxCell>
        <mxCell id="3R3os_SXmj_G0C6hNulr-16" value="+ CreateNodePanel(Panel objectParent): void" style="text;strokeColor=none;fillColor=none;align=left;verticalAlign=top;spacingLeft=4;spacingRight=4;overflow=hidden;rotatable=0;points=[[0,0.5],[1,0.5]];portConstraint=eastwest;whiteSpace=wrap;html=1;" vertex="1" parent="3R3os_SXmj_G0C6hNulr-10">
          <mxGeometry y="164" width="360" height="26" as="geometry" />
        </mxCell>
        <mxCell id="3R3os_SXmj_G0C6hNulr-17" value="+ AddTitlePanel(): void" style="text;strokeColor=none;fillColor=none;align=left;verticalAlign=top;spacingLeft=4;spacingRight=4;overflow=hidden;rotatable=0;points=[[0,0.5],[1,0.5]];portConstraint=eastwest;whiteSpace=wrap;html=1;" vertex="1" parent="3R3os_SXmj_G0C6hNulr-10">
          <mxGeometry y="190" width="360" height="26" as="geometry" />
        </mxCell>
        <mxCell id="3R3os_SXmj_G0C6hNulr-18" value="+ AddPropertyPanel(): void" style="text;strokeColor=none;fillColor=none;align=left;verticalAlign=top;spacingLeft=4;spacingRight=4;overflow=hidden;rotatable=0;points=[[0,0.5],[1,0.5]];portConstraint=eastwest;whiteSpace=wrap;html=1;" vertex="1" parent="3R3os_SXmj_G0C6hNulr-10">
          <mxGeometry y="216" width="360" height="26" as="geometry" />
        </mxCell>
        <mxCell id="3R3os_SXmj_G0C6hNulr-23" value="+ DeleteObject(object sender, EventArgs e): void" style="text;strokeColor=none;fillColor=none;align=left;verticalAlign=top;spacingLeft=4;spacingRight=4;overflow=hidden;rotatable=0;points=[[0,0.5],[1,0.5]];portConstraint=eastwest;whiteSpace=wrap;html=1;" vertex="1" parent="3R3os_SXmj_G0C6hNulr-10">
          <mxGeometry y="242" width="360" height="26" as="geometry" />
        </mxCell>
        <mxCell id="3R3os_SXmj_G0C6hNulr-24" value="+ UpdateTitle(object sender, EventArgs e): void" style="text;strokeColor=none;fillColor=none;align=left;verticalAlign=top;spacingLeft=4;spacingRight=4;overflow=hidden;rotatable=0;points=[[0,0.5],[1,0.5]];portConstraint=eastwest;whiteSpace=wrap;html=1;" vertex="1" parent="3R3os_SXmj_G0C6hNulr-10">
          <mxGeometry y="268" width="360" height="26" as="geometry" />
        </mxCell>
        <mxCell id="3R3os_SXmj_G0C6hNulr-25" value="+ ChangeTitlePanelColor(object sender, EventArgs e): void" style="text;strokeColor=none;fillColor=none;align=left;verticalAlign=top;spacingLeft=4;spacingRight=4;overflow=hidden;rotatable=0;points=[[0,0.5],[1,0.5]];portConstraint=eastwest;whiteSpace=wrap;html=1;" vertex="1" parent="3R3os_SXmj_G0C6hNulr-10">
          <mxGeometry y="294" width="360" height="26" as="geometry" />
        </mxCell>
        <mxCell id="3R3os_SXmj_G0C6hNulr-26" value="+ SelectObject(object sender, MouseeventArgs e): void" style="text;strokeColor=none;fillColor=none;align=left;verticalAlign=top;spacingLeft=4;spacingRight=4;overflow=hidden;rotatable=0;points=[[0,0.5],[1,0.5]];portConstraint=eastwest;whiteSpace=wrap;html=1;" vertex="1" parent="3R3os_SXmj_G0C6hNulr-10">
          <mxGeometry y="320" width="360" height="26" as="geometry" />
        </mxCell>
        <mxCell id="3R3os_SXmj_G0C6hNulr-29" value="+ Action(): void" style="text;strokeColor=none;fillColor=none;align=left;verticalAlign=top;spacingLeft=4;spacingRight=4;overflow=hidden;rotatable=0;points=[[0,0.5],[1,0.5]];portConstraint=eastwest;whiteSpace=wrap;html=1;" vertex="1" parent="3R3os_SXmj_G0C6hNulr-10">
          <mxGeometry y="346" width="360" height="26" as="geometry" />
        </mxCell>
        <mxCell id="3R3os_SXmj_G0C6hNulr-45" style="edgeStyle=orthogonalEdgeStyle;rounded=0;orthogonalLoop=1;jettySize=auto;html=1;exitX=0.5;exitY=0;exitDx=0;exitDy=0;entryX=0;entryY=0.5;entryDx=0;entryDy=0;endArrow=none;endFill=0;fillColor=#dae8fc;strokeColor=#6c8ebf;" edge="1" parent="1" source="3R3os_SXmj_G0C6hNulr-30" target="3R3os_SXmj_G0C6hNulr-22">
          <mxGeometry relative="1" as="geometry">
            <Array as="points">
              <mxPoint x="660" y="430" />
              <mxPoint x="470" y="430" />
              <mxPoint x="470" y="183" />
            </Array>
          </mxGeometry>
        </mxCell>
        <mxCell id="3R3os_SXmj_G0C6hNulr-121" style="edgeStyle=orthogonalEdgeStyle;rounded=0;orthogonalLoop=1;jettySize=auto;html=1;exitX=0.5;exitY=0;exitDx=0;exitDy=0;fillColor=#dae8fc;strokeColor=#6c8ebf;endArrow=none;endFill=0;" edge="1" parent="1" source="3R3os_SXmj_G0C6hNulr-30" target="3R3os_SXmj_G0C6hNulr-112">
          <mxGeometry relative="1" as="geometry">
            <Array as="points">
              <mxPoint x="660" y="430" />
              <mxPoint x="880" y="430" />
              <mxPoint x="880" y="505" />
            </Array>
          </mxGeometry>
        </mxCell>
        <mxCell id="3R3os_SXmj_G0C6hNulr-30" value="Connection" style="swimlane;fontStyle=1;align=center;verticalAlign=top;childLayout=stackLayout;horizontal=1;startSize=26;horizontalStack=0;resizeParent=1;resizeParentMax=0;resizeLast=0;collapsible=1;marginBottom=0;whiteSpace=wrap;html=1;" vertex="1" parent="1">
          <mxGeometry x="480" y="440" width="360" height="268" as="geometry" />
        </mxCell>
        <mxCell id="3R3os_SXmj_G0C6hNulr-31" value="- Node: iConnectedNode" style="text;strokeColor=none;fillColor=none;align=left;verticalAlign=top;spacingLeft=4;spacingRight=4;overflow=hidden;rotatable=0;points=[[0,0.5],[1,0.5]];portConstraint=eastwest;whiteSpace=wrap;html=1;" vertex="1" parent="3R3os_SXmj_G0C6hNulr-30">
          <mxGeometry y="26" width="360" height="26" as="geometry" />
        </mxCell>
        <mxCell id="3R3os_SXmj_G0C6hNulr-32" value="- String: iPropertyName" style="text;strokeColor=none;fillColor=none;align=left;verticalAlign=top;spacingLeft=4;spacingRight=4;overflow=hidden;rotatable=0;points=[[0,0.5],[1,0.5]];portConstraint=eastwest;whiteSpace=wrap;html=1;" vertex="1" parent="3R3os_SXmj_G0C6hNulr-30">
          <mxGeometry y="52" width="360" height="26" as="geometry" />
        </mxCell>
        <mxCell id="3R3os_SXmj_G0C6hNulr-35" value="- Bool: isInput" style="text;strokeColor=none;fillColor=none;align=left;verticalAlign=top;spacingLeft=4;spacingRight=4;overflow=hidden;rotatable=0;points=[[0,0.5],[1,0.5]];portConstraint=eastwest;whiteSpace=wrap;html=1;" vertex="1" parent="3R3os_SXmj_G0C6hNulr-30">
          <mxGeometry y="78" width="360" height="26" as="geometry" />
        </mxCell>
        <mxCell id="3R3os_SXmj_G0C6hNulr-33" value="- Node: oConnectedNode" style="text;strokeColor=none;fillColor=none;align=left;verticalAlign=top;spacingLeft=4;spacingRight=4;overflow=hidden;rotatable=0;points=[[0,0.5],[1,0.5]];portConstraint=eastwest;whiteSpace=wrap;html=1;" vertex="1" parent="3R3os_SXmj_G0C6hNulr-30">
          <mxGeometry y="104" width="360" height="26" as="geometry" />
        </mxCell>
        <mxCell id="3R3os_SXmj_G0C6hNulr-34" value="- String oPropertyName" style="text;strokeColor=none;fillColor=none;align=left;verticalAlign=top;spacingLeft=4;spacingRight=4;overflow=hidden;rotatable=0;points=[[0,0.5],[1,0.5]];portConstraint=eastwest;whiteSpace=wrap;html=1;" vertex="1" parent="3R3os_SXmj_G0C6hNulr-30">
          <mxGeometry y="130" width="360" height="26" as="geometry" />
        </mxCell>
        <mxCell id="3R3os_SXmj_G0C6hNulr-36" value="" style="line;strokeWidth=1;fillColor=none;align=left;verticalAlign=middle;spacingTop=-1;spacingLeft=3;spacingRight=3;rotatable=0;labelPosition=right;points=[];portConstraint=eastwest;strokeColor=inherit;" vertex="1" parent="3R3os_SXmj_G0C6hNulr-30">
          <mxGeometry y="156" width="360" height="8" as="geometry" />
        </mxCell>
        <mxCell id="3R3os_SXmj_G0C6hNulr-37" value="+ GetOConnectionLineLocation(): Point" style="text;strokeColor=none;fillColor=none;align=left;verticalAlign=top;spacingLeft=4;spacingRight=4;overflow=hidden;rotatable=0;points=[[0,0.5],[1,0.5]];portConstraint=eastwest;whiteSpace=wrap;html=1;" vertex="1" parent="3R3os_SXmj_G0C6hNulr-30">
          <mxGeometry y="164" width="360" height="26" as="geometry" />
        </mxCell>
        <mxCell id="3R3os_SXmj_G0C6hNulr-38" value="+ DeleteConnection(Node sender): void" style="text;strokeColor=none;fillColor=none;align=left;verticalAlign=top;spacingLeft=4;spacingRight=4;overflow=hidden;rotatable=0;points=[[0,0.5],[1,0.5]];portConstraint=eastwest;whiteSpace=wrap;html=1;" vertex="1" parent="3R3os_SXmj_G0C6hNulr-30">
          <mxGeometry y="190" width="360" height="26" as="geometry" />
        </mxCell>
        <mxCell id="3R3os_SXmj_G0C6hNulr-39" value="+ AddConnectionToNodes(): void" style="text;strokeColor=none;fillColor=none;align=left;verticalAlign=top;spacingLeft=4;spacingRight=4;overflow=hidden;rotatable=0;points=[[0,0.5],[1,0.5]];portConstraint=eastwest;whiteSpace=wrap;html=1;" vertex="1" parent="3R3os_SXmj_G0C6hNulr-30">
          <mxGeometry y="216" width="360" height="26" as="geometry" />
        </mxCell>
        <mxCell id="3R3os_SXmj_G0C6hNulr-40" value="+ GetData(): void" style="text;strokeColor=none;fillColor=none;align=left;verticalAlign=top;spacingLeft=4;spacingRight=4;overflow=hidden;rotatable=0;points=[[0,0.5],[1,0.5]];portConstraint=eastwest;whiteSpace=wrap;html=1;" vertex="1" parent="3R3os_SXmj_G0C6hNulr-30">
          <mxGeometry y="242" width="360" height="26" as="geometry" />
        </mxCell>
        <mxCell id="3R3os_SXmj_G0C6hNulr-57" style="edgeStyle=orthogonalEdgeStyle;rounded=0;orthogonalLoop=1;jettySize=auto;html=1;exitX=0.5;exitY=0;exitDx=0;exitDy=0;entryX=0;entryY=0.5;entryDx=0;entryDy=0;endArrow=none;endFill=0;fillColor=#dae8fc;strokeColor=#6c8ebf;" edge="1" parent="1" source="3R3os_SXmj_G0C6hNulr-46" target="3R3os_SXmj_G0C6hNulr-14">
          <mxGeometry relative="1" as="geometry">
            <Array as="points">
              <mxPoint x="220" y="360" />
              <mxPoint x="220" y="340" />
              <mxPoint x="460" y="340" />
              <mxPoint x="460" y="157" />
            </Array>
          </mxGeometry>
        </mxCell>
        <mxCell id="3R3os_SXmj_G0C6hNulr-76" style="edgeStyle=orthogonalEdgeStyle;rounded=0;orthogonalLoop=1;jettySize=auto;html=1;exitX=0.75;exitY=0;exitDx=0;exitDy=0;entryX=0.75;entryY=0;entryDx=0;entryDy=0;" edge="1" parent="1" source="3R3os_SXmj_G0C6hNulr-46" target="3R3os_SXmj_G0C6hNulr-62">
          <mxGeometry relative="1" as="geometry">
            <Array as="points">
              <mxPoint x="340" y="350" />
              <mxPoint x="450" y="350" />
              <mxPoint x="450" y="670" />
              <mxPoint x="340" y="670" />
            </Array>
          </mxGeometry>
        </mxCell>
        <mxCell id="3R3os_SXmj_G0C6hNulr-83" style="edgeStyle=orthogonalEdgeStyle;rounded=0;orthogonalLoop=1;jettySize=auto;html=1;exitX=0.75;exitY=0;exitDx=0;exitDy=0;entryX=0.75;entryY=0;entryDx=0;entryDy=0;" edge="1" parent="1" source="3R3os_SXmj_G0C6hNulr-46" target="3R3os_SXmj_G0C6hNulr-77">
          <mxGeometry relative="1" as="geometry">
            <Array as="points">
              <mxPoint x="340" y="350" />
              <mxPoint x="450" y="350" />
              <mxPoint x="450" y="830" />
              <mxPoint x="340" y="830" />
            </Array>
          </mxGeometry>
        </mxCell>
        <mxCell id="3R3os_SXmj_G0C6hNulr-90" style="edgeStyle=orthogonalEdgeStyle;rounded=0;orthogonalLoop=1;jettySize=auto;html=1;exitX=0.75;exitY=0;exitDx=0;exitDy=0;entryX=0.75;entryY=0;entryDx=0;entryDy=0;" edge="1" parent="1" source="3R3os_SXmj_G0C6hNulr-46" target="3R3os_SXmj_G0C6hNulr-84">
          <mxGeometry relative="1" as="geometry">
            <Array as="points">
              <mxPoint x="340" y="350" />
              <mxPoint x="450" y="350" />
              <mxPoint x="450" y="990" />
              <mxPoint x="340" y="990" />
            </Array>
          </mxGeometry>
        </mxCell>
        <mxCell id="3R3os_SXmj_G0C6hNulr-97" style="edgeStyle=orthogonalEdgeStyle;rounded=0;orthogonalLoop=1;jettySize=auto;html=1;exitX=0.75;exitY=0;exitDx=0;exitDy=0;entryX=0.75;entryY=0;entryDx=0;entryDy=0;" edge="1" parent="1" source="3R3os_SXmj_G0C6hNulr-46" target="3R3os_SXmj_G0C6hNulr-92">
          <mxGeometry relative="1" as="geometry">
            <Array as="points">
              <mxPoint x="340" y="350" />
              <mxPoint x="450" y="350" />
              <mxPoint x="450" y="1150" />
              <mxPoint x="340" y="1150" />
            </Array>
          </mxGeometry>
        </mxCell>
        <mxCell id="3R3os_SXmj_G0C6hNulr-46" value="NodeProperty" style="swimlane;fontStyle=1;align=center;verticalAlign=top;childLayout=stackLayout;horizontal=1;startSize=26;horizontalStack=0;resizeParent=1;resizeParentMax=0;resizeLast=0;collapsible=1;marginBottom=0;whiteSpace=wrap;html=1;" vertex="1" parent="1">
          <mxGeometry x="40" y="360" width="400" height="294" as="geometry" />
        </mxCell>
        <mxCell id="3R3os_SXmj_G0C6hNulr-47" value="+ Rectangle: Transfrom" style="text;strokeColor=none;fillColor=none;align=left;verticalAlign=top;spacingLeft=4;spacingRight=4;overflow=hidden;rotatable=0;points=[[0,0.5],[1,0.5]];portConstraint=eastwest;whiteSpace=wrap;html=1;" vertex="1" parent="3R3os_SXmj_G0C6hNulr-46">
          <mxGeometry y="26" width="400" height="26" as="geometry" />
        </mxCell>
        <mxCell id="3R3os_SXmj_G0C6hNulr-48" value="+ Panel: PropertyPanel" style="text;strokeColor=none;fillColor=none;align=left;verticalAlign=top;spacingLeft=4;spacingRight=4;overflow=hidden;rotatable=0;points=[[0,0.5],[1,0.5]];portConstraint=eastwest;whiteSpace=wrap;html=1;" vertex="1" parent="3R3os_SXmj_G0C6hNulr-46">
          <mxGeometry y="52" width="400" height="26" as="geometry" />
        </mxCell>
        <mxCell id="3R3os_SXmj_G0C6hNulr-49" value="+ String: PropertyName" style="text;strokeColor=none;fillColor=none;align=left;verticalAlign=top;spacingLeft=4;spacingRight=4;overflow=hidden;rotatable=0;points=[[0,0.5],[1,0.5]];portConstraint=eastwest;whiteSpace=wrap;html=1;" vertex="1" parent="3R3os_SXmj_G0C6hNulr-46">
          <mxGeometry y="78" width="400" height="26" as="geometry" />
        </mxCell>
        <mxCell id="3R3os_SXmj_G0C6hNulr-50" value="- Label: PropertyNameLabel" style="text;strokeColor=none;fillColor=none;align=left;verticalAlign=top;spacingLeft=4;spacingRight=4;overflow=hidden;rotatable=0;points=[[0,0.5],[1,0.5]];portConstraint=eastwest;whiteSpace=wrap;html=1;" vertex="1" parent="3R3os_SXmj_G0C6hNulr-46">
          <mxGeometry y="104" width="400" height="26" as="geometry" />
        </mxCell>
        <mxCell id="3R3os_SXmj_G0C6hNulr-51" value="+ Node: Node" style="text;strokeColor=none;fillColor=none;align=left;verticalAlign=top;spacingLeft=4;spacingRight=4;overflow=hidden;rotatable=0;points=[[0,0.5],[1,0.5]];portConstraint=eastwest;whiteSpace=wrap;html=1;" vertex="1" parent="3R3os_SXmj_G0C6hNulr-46">
          <mxGeometry y="130" width="400" height="26" as="geometry" />
        </mxCell>
        <mxCell id="3R3os_SXmj_G0C6hNulr-59" value="+ Button: ConnectionButton" style="text;strokeColor=none;fillColor=none;align=left;verticalAlign=top;spacingLeft=4;spacingRight=4;overflow=hidden;rotatable=0;points=[[0,0.5],[1,0.5]];portConstraint=eastwest;whiteSpace=wrap;html=1;" vertex="1" parent="3R3os_SXmj_G0C6hNulr-46">
          <mxGeometry y="156" width="400" height="26" as="geometry" />
        </mxCell>
        <mxCell id="3R3os_SXmj_G0C6hNulr-60" value="+ Point: ConnectionLineLocation" style="text;strokeColor=none;fillColor=none;align=left;verticalAlign=top;spacingLeft=4;spacingRight=4;overflow=hidden;rotatable=0;points=[[0,0.5],[1,0.5]];portConstraint=eastwest;whiteSpace=wrap;html=1;" vertex="1" parent="3R3os_SXmj_G0C6hNulr-46">
          <mxGeometry y="182" width="400" height="26" as="geometry" />
        </mxCell>
        <mxCell id="3R3os_SXmj_G0C6hNulr-61" value="+ Bool: isInput" style="text;strokeColor=none;fillColor=none;align=left;verticalAlign=top;spacingLeft=4;spacingRight=4;overflow=hidden;rotatable=0;points=[[0,0.5],[1,0.5]];portConstraint=eastwest;whiteSpace=wrap;html=1;" vertex="1" parent="3R3os_SXmj_G0C6hNulr-46">
          <mxGeometry y="208" width="400" height="26" as="geometry" />
        </mxCell>
        <mxCell id="3R3os_SXmj_G0C6hNulr-52" value="" style="line;strokeWidth=1;fillColor=none;align=left;verticalAlign=middle;spacingTop=-1;spacingLeft=3;spacingRight=3;rotatable=0;labelPosition=right;points=[];portConstraint=eastwest;strokeColor=inherit;" vertex="1" parent="3R3os_SXmj_G0C6hNulr-46">
          <mxGeometry y="234" width="400" height="8" as="geometry" />
        </mxCell>
        <mxCell id="3R3os_SXmj_G0C6hNulr-53" value="+ CreatePropertyPanel(): void" style="text;strokeColor=none;fillColor=none;align=left;verticalAlign=top;spacingLeft=4;spacingRight=4;overflow=hidden;rotatable=0;points=[[0,0.5],[1,0.5]];portConstraint=eastwest;whiteSpace=wrap;html=1;" vertex="1" parent="3R3os_SXmj_G0C6hNulr-46">
          <mxGeometry y="242" width="400" height="26" as="geometry" />
        </mxCell>
        <mxCell id="3R3os_SXmj_G0C6hNulr-54" value="+ ConnectionButtonPressed(object sender, MouseEventArgs e): void" style="text;strokeColor=none;fillColor=none;align=left;verticalAlign=top;spacingLeft=4;spacingRight=4;overflow=hidden;rotatable=0;points=[[0,0.5],[1,0.5]];portConstraint=eastwest;whiteSpace=wrap;html=1;" vertex="1" parent="3R3os_SXmj_G0C6hNulr-46">
          <mxGeometry y="268" width="400" height="26" as="geometry" />
        </mxCell>
        <mxCell id="3R3os_SXmj_G0C6hNulr-62" value="IntProperty" style="swimlane;fontStyle=1;align=center;verticalAlign=top;childLayout=stackLayout;horizontal=1;startSize=26;horizontalStack=0;resizeParent=1;resizeParentMax=0;resizeLast=0;collapsible=1;marginBottom=0;whiteSpace=wrap;html=1;" vertex="1" parent="1">
          <mxGeometry x="40" y="680" width="400" height="138" as="geometry" />
        </mxCell>
        <mxCell id="3R3os_SXmj_G0C6hNulr-63" value="+ TextBox: TextBox" style="text;strokeColor=none;fillColor=none;align=left;verticalAlign=top;spacingLeft=4;spacingRight=4;overflow=hidden;rotatable=0;points=[[0,0.5],[1,0.5]];portConstraint=eastwest;whiteSpace=wrap;html=1;" vertex="1" parent="3R3os_SXmj_G0C6hNulr-62">
          <mxGeometry y="26" width="400" height="26" as="geometry" />
        </mxCell>
        <mxCell id="3R3os_SXmj_G0C6hNulr-71" value="" style="line;strokeWidth=1;fillColor=none;align=left;verticalAlign=middle;spacingTop=-1;spacingLeft=3;spacingRight=3;rotatable=0;labelPosition=right;points=[];portConstraint=eastwest;strokeColor=inherit;" vertex="1" parent="3R3os_SXmj_G0C6hNulr-62">
          <mxGeometry y="52" width="400" height="8" as="geometry" />
        </mxCell>
        <mxCell id="3R3os_SXmj_G0C6hNulr-72" value="+ CreatePropertyPanel(): void" style="text;strokeColor=none;fillColor=none;align=left;verticalAlign=top;spacingLeft=4;spacingRight=4;overflow=hidden;rotatable=0;points=[[0,0.5],[1,0.5]];portConstraint=eastwest;whiteSpace=wrap;html=1;" vertex="1" parent="3R3os_SXmj_G0C6hNulr-62">
          <mxGeometry y="60" width="400" height="26" as="geometry" />
        </mxCell>
        <mxCell id="3R3os_SXmj_G0C6hNulr-73" value="- TextBox_KeyPress(object sender, KeyPressEventArgs e): void" style="text;strokeColor=none;fillColor=none;align=left;verticalAlign=top;spacingLeft=4;spacingRight=4;overflow=hidden;rotatable=0;points=[[0,0.5],[1,0.5]];portConstraint=eastwest;whiteSpace=wrap;html=1;" vertex="1" parent="3R3os_SXmj_G0C6hNulr-62">
          <mxGeometry y="86" width="400" height="26" as="geometry" />
        </mxCell>
        <mxCell id="3R3os_SXmj_G0C6hNulr-74" value="- ApplyInt(object sender, EventArgs e): void" style="text;strokeColor=none;fillColor=none;align=left;verticalAlign=top;spacingLeft=4;spacingRight=4;overflow=hidden;rotatable=0;points=[[0,0.5],[1,0.5]];portConstraint=eastwest;whiteSpace=wrap;html=1;" vertex="1" parent="3R3os_SXmj_G0C6hNulr-62">
          <mxGeometry y="112" width="400" height="26" as="geometry" />
        </mxCell>
        <mxCell id="3R3os_SXmj_G0C6hNulr-77" value="FloatProperty" style="swimlane;fontStyle=1;align=center;verticalAlign=top;childLayout=stackLayout;horizontal=1;startSize=26;horizontalStack=0;resizeParent=1;resizeParentMax=0;resizeLast=0;collapsible=1;marginBottom=0;whiteSpace=wrap;html=1;" vertex="1" parent="1">
          <mxGeometry x="40" y="840" width="400" height="138" as="geometry" />
        </mxCell>
        <mxCell id="3R3os_SXmj_G0C6hNulr-78" value="+ TextBox: TextBox" style="text;strokeColor=none;fillColor=none;align=left;verticalAlign=top;spacingLeft=4;spacingRight=4;overflow=hidden;rotatable=0;points=[[0,0.5],[1,0.5]];portConstraint=eastwest;whiteSpace=wrap;html=1;" vertex="1" parent="3R3os_SXmj_G0C6hNulr-77">
          <mxGeometry y="26" width="400" height="26" as="geometry" />
        </mxCell>
        <mxCell id="3R3os_SXmj_G0C6hNulr-79" value="" style="line;strokeWidth=1;fillColor=none;align=left;verticalAlign=middle;spacingTop=-1;spacingLeft=3;spacingRight=3;rotatable=0;labelPosition=right;points=[];portConstraint=eastwest;strokeColor=inherit;" vertex="1" parent="3R3os_SXmj_G0C6hNulr-77">
          <mxGeometry y="52" width="400" height="8" as="geometry" />
        </mxCell>
        <mxCell id="3R3os_SXmj_G0C6hNulr-80" value="+ CreatePropertyPanel(): void" style="text;strokeColor=none;fillColor=none;align=left;verticalAlign=top;spacingLeft=4;spacingRight=4;overflow=hidden;rotatable=0;points=[[0,0.5],[1,0.5]];portConstraint=eastwest;whiteSpace=wrap;html=1;" vertex="1" parent="3R3os_SXmj_G0C6hNulr-77">
          <mxGeometry y="60" width="400" height="26" as="geometry" />
        </mxCell>
        <mxCell id="3R3os_SXmj_G0C6hNulr-81" value="- TextBox_KeyPress(object sender, KeyPressEventArgs e): void" style="text;strokeColor=none;fillColor=none;align=left;verticalAlign=top;spacingLeft=4;spacingRight=4;overflow=hidden;rotatable=0;points=[[0,0.5],[1,0.5]];portConstraint=eastwest;whiteSpace=wrap;html=1;" vertex="1" parent="3R3os_SXmj_G0C6hNulr-77">
          <mxGeometry y="86" width="400" height="26" as="geometry" />
        </mxCell>
        <mxCell id="3R3os_SXmj_G0C6hNulr-82" value="- ApplyFloat(object sender, EventArgs e): void" style="text;strokeColor=none;fillColor=none;align=left;verticalAlign=top;spacingLeft=4;spacingRight=4;overflow=hidden;rotatable=0;points=[[0,0.5],[1,0.5]];portConstraint=eastwest;whiteSpace=wrap;html=1;" vertex="1" parent="3R3os_SXmj_G0C6hNulr-77">
          <mxGeometry y="112" width="400" height="26" as="geometry" />
        </mxCell>
        <mxCell id="3R3os_SXmj_G0C6hNulr-84" value="StringProperty" style="swimlane;fontStyle=1;align=center;verticalAlign=top;childLayout=stackLayout;horizontal=1;startSize=26;horizontalStack=0;resizeParent=1;resizeParentMax=0;resizeLast=0;collapsible=1;marginBottom=0;whiteSpace=wrap;html=1;" vertex="1" parent="1">
          <mxGeometry x="40" y="1000" width="400" height="112" as="geometry" />
        </mxCell>
        <mxCell id="3R3os_SXmj_G0C6hNulr-85" value="+ TextBox: TextBox" style="text;strokeColor=none;fillColor=none;align=left;verticalAlign=top;spacingLeft=4;spacingRight=4;overflow=hidden;rotatable=0;points=[[0,0.5],[1,0.5]];portConstraint=eastwest;whiteSpace=wrap;html=1;" vertex="1" parent="3R3os_SXmj_G0C6hNulr-84">
          <mxGeometry y="26" width="400" height="26" as="geometry" />
        </mxCell>
        <mxCell id="3R3os_SXmj_G0C6hNulr-86" value="" style="line;strokeWidth=1;fillColor=none;align=left;verticalAlign=middle;spacingTop=-1;spacingLeft=3;spacingRight=3;rotatable=0;labelPosition=right;points=[];portConstraint=eastwest;strokeColor=inherit;" vertex="1" parent="3R3os_SXmj_G0C6hNulr-84">
          <mxGeometry y="52" width="400" height="8" as="geometry" />
        </mxCell>
        <mxCell id="3R3os_SXmj_G0C6hNulr-87" value="+ CreatePropertyPanel(): void" style="text;strokeColor=none;fillColor=none;align=left;verticalAlign=top;spacingLeft=4;spacingRight=4;overflow=hidden;rotatable=0;points=[[0,0.5],[1,0.5]];portConstraint=eastwest;whiteSpace=wrap;html=1;" vertex="1" parent="3R3os_SXmj_G0C6hNulr-84">
          <mxGeometry y="60" width="400" height="26" as="geometry" />
        </mxCell>
        <mxCell id="3R3os_SXmj_G0C6hNulr-89" value="- ApplyString(object sender, EventArgs e): void" style="text;strokeColor=none;fillColor=none;align=left;verticalAlign=top;spacingLeft=4;spacingRight=4;overflow=hidden;rotatable=0;points=[[0,0.5],[1,0.5]];portConstraint=eastwest;whiteSpace=wrap;html=1;" vertex="1" parent="3R3os_SXmj_G0C6hNulr-84">
          <mxGeometry y="86" width="400" height="26" as="geometry" />
        </mxCell>
        <mxCell id="3R3os_SXmj_G0C6hNulr-92" value="FileProperty" style="swimlane;fontStyle=1;align=center;verticalAlign=top;childLayout=stackLayout;horizontal=1;startSize=26;horizontalStack=0;resizeParent=1;resizeParentMax=0;resizeLast=0;collapsible=1;marginBottom=0;whiteSpace=wrap;html=1;" vertex="1" parent="1">
          <mxGeometry x="40" y="1160" width="400" height="112" as="geometry" />
        </mxCell>
        <mxCell id="3R3os_SXmj_G0C6hNulr-93" value="+ TextBox: TextBox" style="text;strokeColor=none;fillColor=none;align=left;verticalAlign=top;spacingLeft=4;spacingRight=4;overflow=hidden;rotatable=0;points=[[0,0.5],[1,0.5]];portConstraint=eastwest;whiteSpace=wrap;html=1;" vertex="1" parent="3R3os_SXmj_G0C6hNulr-92">
          <mxGeometry y="26" width="400" height="26" as="geometry" />
        </mxCell>
        <mxCell id="3R3os_SXmj_G0C6hNulr-94" value="" style="line;strokeWidth=1;fillColor=none;align=left;verticalAlign=middle;spacingTop=-1;spacingLeft=3;spacingRight=3;rotatable=0;labelPosition=right;points=[];portConstraint=eastwest;strokeColor=inherit;" vertex="1" parent="3R3os_SXmj_G0C6hNulr-92">
          <mxGeometry y="52" width="400" height="8" as="geometry" />
        </mxCell>
        <mxCell id="3R3os_SXmj_G0C6hNulr-95" value="+ CreatePropertyPanel(): void" style="text;strokeColor=none;fillColor=none;align=left;verticalAlign=top;spacingLeft=4;spacingRight=4;overflow=hidden;rotatable=0;points=[[0,0.5],[1,0.5]];portConstraint=eastwest;whiteSpace=wrap;html=1;" vertex="1" parent="3R3os_SXmj_G0C6hNulr-92">
          <mxGeometry y="60" width="400" height="26" as="geometry" />
        </mxCell>
        <mxCell id="3R3os_SXmj_G0C6hNulr-96" value="+ LoadFile(object sender, MouseEventArgs e): void" style="text;strokeColor=none;fillColor=none;align=left;verticalAlign=top;spacingLeft=4;spacingRight=4;overflow=hidden;rotatable=0;points=[[0,0.5],[1,0.5]];portConstraint=eastwest;whiteSpace=wrap;html=1;" vertex="1" parent="3R3os_SXmj_G0C6hNulr-92">
          <mxGeometry y="86" width="400" height="26" as="geometry" />
        </mxCell>
        <mxCell id="3R3os_SXmj_G0C6hNulr-98" value="GlobalPositions" style="swimlane;fontStyle=1;align=center;verticalAlign=top;childLayout=stackLayout;horizontal=1;startSize=26;horizontalStack=0;resizeParent=1;resizeParentMax=0;resizeLast=0;collapsible=1;marginBottom=0;whiteSpace=wrap;html=1;" vertex="1" parent="1">
          <mxGeometry x="920" y="40" width="360" height="216" as="geometry" />
        </mxCell>
        <mxCell id="3R3os_SXmj_G0C6hNulr-107" style="edgeStyle=orthogonalEdgeStyle;rounded=0;orthogonalLoop=1;jettySize=auto;html=1;exitX=0;exitY=0.5;exitDx=0;exitDy=0;entryX=0.5;entryY=0;entryDx=0;entryDy=0;fillColor=#dae8fc;strokeColor=#6c8ebf;endArrow=none;endFill=0;" edge="1" parent="3R3os_SXmj_G0C6hNulr-98" source="3R3os_SXmj_G0C6hNulr-99" target="3R3os_SXmj_G0C6hNulr-98">
          <mxGeometry relative="1" as="geometry">
            <Array as="points">
              <mxPoint x="-20" y="39" />
              <mxPoint x="-20" y="-20" />
              <mxPoint x="180" y="-20" />
            </Array>
          </mxGeometry>
        </mxCell>
        <mxCell id="3R3os_SXmj_G0C6hNulr-99" value="+ GlobalPositions: data" style="text;strokeColor=none;fillColor=none;align=left;verticalAlign=top;spacingLeft=4;spacingRight=4;overflow=hidden;rotatable=0;points=[[0,0.5],[1,0.5]];portConstraint=eastwest;whiteSpace=wrap;html=1;" vertex="1" parent="3R3os_SXmj_G0C6hNulr-98">
          <mxGeometry y="26" width="360" height="26" as="geometry" />
        </mxCell>
        <mxCell id="3R3os_SXmj_G0C6hNulr-100" value="- Point: position" style="text;strokeColor=none;fillColor=none;align=left;verticalAlign=top;spacingLeft=4;spacingRight=4;overflow=hidden;rotatable=0;points=[[0,0.5],[1,0.5]];portConstraint=eastwest;whiteSpace=wrap;html=1;" vertex="1" parent="3R3os_SXmj_G0C6hNulr-98">
          <mxGeometry y="52" width="360" height="26" as="geometry" />
        </mxCell>
        <mxCell id="3R3os_SXmj_G0C6hNulr-101" value="- Point: oldPosition" style="text;strokeColor=none;fillColor=none;align=left;verticalAlign=top;spacingLeft=4;spacingRight=4;overflow=hidden;rotatable=0;points=[[0,0.5],[1,0.5]];portConstraint=eastwest;whiteSpace=wrap;html=1;" vertex="1" parent="3R3os_SXmj_G0C6hNulr-98">
          <mxGeometry y="78" width="360" height="26" as="geometry" />
        </mxCell>
        <mxCell id="3R3os_SXmj_G0C6hNulr-102" value="- Point: startMousePosition" style="text;strokeColor=none;fillColor=none;align=left;verticalAlign=top;spacingLeft=4;spacingRight=4;overflow=hidden;rotatable=0;points=[[0,0.5],[1,0.5]];portConstraint=eastwest;whiteSpace=wrap;html=1;" vertex="1" parent="3R3os_SXmj_G0C6hNulr-98">
          <mxGeometry y="104" width="360" height="26" as="geometry" />
        </mxCell>
        <mxCell id="3R3os_SXmj_G0C6hNulr-108" value="- Point: endMousePosition" style="text;strokeColor=none;fillColor=none;align=left;verticalAlign=top;spacingLeft=4;spacingRight=4;overflow=hidden;rotatable=0;points=[[0,0.5],[1,0.5]];portConstraint=eastwest;whiteSpace=wrap;html=1;" vertex="1" parent="3R3os_SXmj_G0C6hNulr-98">
          <mxGeometry y="130" width="360" height="26" as="geometry" />
        </mxCell>
        <mxCell id="3R3os_SXmj_G0C6hNulr-103" value="" style="line;strokeWidth=1;fillColor=none;align=left;verticalAlign=middle;spacingTop=-1;spacingLeft=3;spacingRight=3;rotatable=0;labelPosition=right;points=[];portConstraint=eastwest;strokeColor=inherit;" vertex="1" parent="3R3os_SXmj_G0C6hNulr-98">
          <mxGeometry y="156" width="360" height="8" as="geometry" />
        </mxCell>
        <mxCell id="3R3os_SXmj_G0C6hNulr-104" value="+ AddToPoint(Point a, Point b): Point" style="text;strokeColor=none;fillColor=none;align=left;verticalAlign=top;spacingLeft=4;spacingRight=4;overflow=hidden;rotatable=0;points=[[0,0.5],[1,0.5]];portConstraint=eastwest;whiteSpace=wrap;html=1;" vertex="1" parent="3R3os_SXmj_G0C6hNulr-98">
          <mxGeometry y="164" width="360" height="26" as="geometry" />
        </mxCell>
        <mxCell id="3R3os_SXmj_G0C6hNulr-105" value="+ SubstractFromPoint(Point a, Point b): Point" style="text;strokeColor=none;fillColor=none;align=left;verticalAlign=top;spacingLeft=4;spacingRight=4;overflow=hidden;rotatable=0;points=[[0,0.5],[1,0.5]];portConstraint=eastwest;whiteSpace=wrap;html=1;" vertex="1" parent="3R3os_SXmj_G0C6hNulr-98">
          <mxGeometry y="190" width="360" height="26" as="geometry" />
        </mxCell>
        <mxCell id="3R3os_SXmj_G0C6hNulr-109" value="ConnectionManager" style="swimlane;fontStyle=1;align=center;verticalAlign=top;childLayout=stackLayout;horizontal=1;startSize=26;horizontalStack=0;resizeParent=1;resizeParentMax=0;resizeLast=0;collapsible=1;marginBottom=0;whiteSpace=wrap;html=1;" vertex="1" parent="1">
          <mxGeometry x="920" y="440" width="480" height="190" as="geometry" />
        </mxCell>
        <mxCell id="3R3os_SXmj_G0C6hNulr-111" value="+ ConnectionManager: data" style="text;strokeColor=none;fillColor=none;align=left;verticalAlign=top;spacingLeft=4;spacingRight=4;overflow=hidden;rotatable=0;points=[[0,0.5],[1,0.5]];portConstraint=eastwest;whiteSpace=wrap;html=1;" vertex="1" parent="3R3os_SXmj_G0C6hNulr-109">
          <mxGeometry y="26" width="480" height="26" as="geometry" />
        </mxCell>
        <mxCell id="3R3os_SXmj_G0C6hNulr-112" value="+ List &amp;lt;Connection&amp;gt;: connections" style="text;strokeColor=none;fillColor=none;align=left;verticalAlign=top;spacingLeft=4;spacingRight=4;overflow=hidden;rotatable=0;points=[[0,0.5],[1,0.5]];portConstraint=eastwest;whiteSpace=wrap;html=1;" vertex="1" parent="3R3os_SXmj_G0C6hNulr-109">
          <mxGeometry y="52" width="480" height="26" as="geometry" />
        </mxCell>
        <mxCell id="3R3os_SXmj_G0C6hNulr-113" value="+ Node: selectedNode" style="text;strokeColor=none;fillColor=none;align=left;verticalAlign=top;spacingLeft=4;spacingRight=4;overflow=hidden;rotatable=0;points=[[0,0.5],[1,0.5]];portConstraint=eastwest;whiteSpace=wrap;html=1;" vertex="1" parent="3R3os_SXmj_G0C6hNulr-109">
          <mxGeometry y="78" width="480" height="26" as="geometry" />
        </mxCell>
        <mxCell id="3R3os_SXmj_G0C6hNulr-114" value="+ String: selectedPropertyName" style="text;strokeColor=none;fillColor=none;align=left;verticalAlign=top;spacingLeft=4;spacingRight=4;overflow=hidden;rotatable=0;points=[[0,0.5],[1,0.5]];portConstraint=eastwest;whiteSpace=wrap;html=1;" vertex="1" parent="3R3os_SXmj_G0C6hNulr-109">
          <mxGeometry y="104" width="480" height="26" as="geometry" />
        </mxCell>
        <mxCell id="3R3os_SXmj_G0C6hNulr-116" value="" style="line;strokeWidth=1;fillColor=none;align=left;verticalAlign=middle;spacingTop=-1;spacingLeft=3;spacingRight=3;rotatable=0;labelPosition=right;points=[];portConstraint=eastwest;strokeColor=inherit;" vertex="1" parent="3R3os_SXmj_G0C6hNulr-109">
          <mxGeometry y="130" width="480" height="8" as="geometry" />
        </mxCell>
        <mxCell id="3R3os_SXmj_G0C6hNulr-117" value="+ AddConnection(Node targetNode, String targerPropertyName): void" style="text;strokeColor=none;fillColor=none;align=left;verticalAlign=top;spacingLeft=4;spacingRight=4;overflow=hidden;rotatable=0;points=[[0,0.5],[1,0.5]];portConstraint=eastwest;whiteSpace=wrap;html=1;" vertex="1" parent="3R3os_SXmj_G0C6hNulr-109">
          <mxGeometry y="138" width="480" height="26" as="geometry" />
        </mxCell>
        <mxCell id="3R3os_SXmj_G0C6hNulr-118" value="+&amp;nbsp;DrawConnectionLines(object sender, PaintEventArgs e, Point cursorPosition): void" style="text;strokeColor=none;fillColor=none;align=left;verticalAlign=top;spacingLeft=4;spacingRight=4;overflow=hidden;rotatable=0;points=[[0,0.5],[1,0.5]];portConstraint=eastwest;whiteSpace=wrap;html=1;" vertex="1" parent="3R3os_SXmj_G0C6hNulr-109">
          <mxGeometry y="164" width="480" height="26" as="geometry" />
        </mxCell>
        <mxCell id="3R3os_SXmj_G0C6hNulr-119" style="edgeStyle=orthogonalEdgeStyle;rounded=0;orthogonalLoop=1;jettySize=auto;html=1;exitX=0.5;exitY=0;exitDx=0;exitDy=0;entryX=0;entryY=0.5;entryDx=0;entryDy=0;fillColor=#dae8fc;strokeColor=#6c8ebf;endArrow=none;endFill=0;" edge="1" parent="3R3os_SXmj_G0C6hNulr-109" source="3R3os_SXmj_G0C6hNulr-109" target="3R3os_SXmj_G0C6hNulr-111">
          <mxGeometry relative="1" as="geometry" />
        </mxCell>
        <mxCell id="3R3os_SXmj_G0C6hNulr-122" value="Prompts" style="swimlane;fontStyle=1;align=center;verticalAlign=top;childLayout=stackLayout;horizontal=1;startSize=26;horizontalStack=0;resizeParent=1;resizeParentMax=0;resizeLast=0;collapsible=1;marginBottom=0;whiteSpace=wrap;html=1;" vertex="1" parent="1">
          <mxGeometry x="480" y="760" width="360" height="60" as="geometry" />
        </mxCell>
        <mxCell id="3R3os_SXmj_G0C6hNulr-128" value="" style="line;strokeWidth=1;fillColor=none;align=left;verticalAlign=middle;spacingTop=-1;spacingLeft=3;spacingRight=3;rotatable=0;labelPosition=right;points=[];portConstraint=eastwest;strokeColor=inherit;" vertex="1" parent="3R3os_SXmj_G0C6hNulr-122">
          <mxGeometry y="26" width="360" height="8" as="geometry" />
        </mxCell>
        <mxCell id="3R3os_SXmj_G0C6hNulr-131" value="+ StringInput(string text, string caption): String" style="text;strokeColor=none;fillColor=none;align=left;verticalAlign=top;spacingLeft=4;spacingRight=4;overflow=hidden;rotatable=0;points=[[0,0.5],[1,0.5]];portConstraint=eastwest;whiteSpace=wrap;html=1;" vertex="1" parent="3R3os_SXmj_G0C6hNulr-122">
          <mxGeometry y="34" width="360" height="26" as="geometry" />
        </mxCell>
      </root>
    </mxGraphModel>
  </diagram>
</mxfile>
